<svg id="Layer_1" data-name="Layer 1" xmlns="http://www.w3.org/2000/svg" xmlns:xlink="http://www.w3.org/1999/xlink" viewBox="0 0 200 200"><defs><style>.cls-1{fill:#23baed;}.cls-2{fill:url(#linear-gradient);}.cls-3{fill:url(#linear-gradient-2);}.cls-4,.cls-8{opacity:0.7;}.cls-4{fill:url(#linear-gradient-3);}.cls-5{fill:#f79421;}.cls-6{fill:url(#linear-gradient-4);}.cls-7{fill:url(#linear-gradient-5);}.cls-8{fill:url(#linear-gradient-6);}</style><linearGradient id="linear-gradient" x1="35.38" y1="95.73" x2="75.32" y2="95.73" gradientUnits="userSpaceOnUse"><stop offset="0.64" stop-color="#23baed"/><stop offset="0.74" stop-color="#2ba5d7"/><stop offset="0.94" stop-color="#3f6e9e"/><stop offset="1" stop-color="#455c8c"/></linearGradient><linearGradient id="linear-gradient-2" x1="37.29" y1="136.09" x2="74.63" y2="136.09" gradientUnits="userSpaceOnUse"><stop offset="0" stop-color="#455c8c"/><stop offset="0.16" stop-color="#3f6e9e"/><stop offset="0.67" stop-color="#2ba5d7"/><stop offset="0.92" stop-color="#23baed"/></linearGradient><linearGradient id="linear-gradient-3" x1="87.66" y1="62.62" x2="87.66" y2="19.52" gradientUnits="userSpaceOnUse"><stop offset="0.58" stop-color="#23baed"/><stop offset="0.64" stop-color="#39bbe6"/><stop offset="0.77" stop-color="#72bcd4"/><stop offset="0.96" stop-color="#cdbfb6"/><stop offset="1" stop-color="#e4c0af"/></linearGradient><linearGradient id="linear-gradient-4" x1="124.68" y1="117.28" x2="164.62" y2="117.28" gradientUnits="userSpaceOnUse"><stop offset="0" stop-color="#455c8c"/><stop offset="0" stop-color="#a4482e"/><stop offset="0.03" stop-color="#a84c2d"/><stop offset="0.5" stop-color="#e18024"/><stop offset="0.72" stop-color="#f79421"/></linearGradient><linearGradient id="linear-gradient-5" x1="125.37" y1="157.64" x2="162.71" y2="157.64" gradientUnits="userSpaceOnUse"><stop offset="0.28" stop-color="#f79421"/><stop offset="0.5" stop-color="#e18024"/><stop offset="0.97" stop-color="#a84c2d"/><stop offset="1" stop-color="#a4482e"/><stop offset="1" stop-color="#455c8c"/></linearGradient><linearGradient id="linear-gradient-6" x1="112.33" y1="64.33" x2="112.33" y2="41.07" gradientUnits="userSpaceOnUse"><stop offset="0.27" stop-color="#f79421"/><stop offset="0.46" stop-color="#f9a037"/><stop offset="0.85" stop-color="#fcc070"/><stop offset="1" stop-color="#fecd88"/><stop offset="1" stop-color="#fecd88" stop-opacity="0.7"/></linearGradient></defs><title>webiconArtboard 1</title><path class="cls-1" d="M69.42,129.88a17.45,17.45,0,0,1-29-13.08,17.86,17.86,0,0,1,.36-3.54h0a17.49,17.49,0,0,1,1.81-4.87,0,0,0,0,0,0,0,17.78,17.78,0,0,1,4.46-5.26,17.45,17.45,0,0,1,22.37,26.78ZM98.61,20.56a4.18,4.18,0,0,0-2.71-1,4.58,4.58,0,0,0-.83.09,28.65,28.65,0,0,0-3.4,1A24.45,24.45,0,0,0,88.52,22a25.26,25.26,0,0,0-2.89,1.79A23.37,23.37,0,0,0,83,25.91a22.53,22.53,0,0,0-2.29,2.49,23.85,23.85,0,0,0-3.48,5.84,24.71,24.71,0,0,0-1.12,3.27A25.38,25.38,0,0,0,75.49,41a24.42,24.42,0,0,0-.17,2.83V78.43A42.15,42.15,0,1,0,100,116.8V23.57A4.09,4.09,0,0,0,98.61,20.56Z"/><path class="cls-2" d="M75.32,78.43V116.8a17.45,17.45,0,0,0-28.27-13.7L35.38,81.16a42.28,42.28,0,0,1,39.94-2.73Z"/><path class="cls-3" d="M74.63,155.47a42.42,42.42,0,0,1-32,.62h0c-9.18-18.39-4.13-35.22-1.82-42.82a17.86,17.86,0,0,0-.36,3.54,17.45,17.45,0,0,0,29,13.08Z"/><path class="cls-4" d="M100,23.57V62.62H75.32V43.8A24.42,24.42,0,0,1,75.49,41a25.38,25.38,0,0,1,.64-3.46,24.71,24.71,0,0,1,1.12-3.27,23.85,23.85,0,0,1,3.48-5.84A22.53,22.53,0,0,1,83,25.91a23.37,23.37,0,0,1,2.61-2.16A25.26,25.26,0,0,1,88.52,22a24.45,24.45,0,0,1,3.15-1.38,28.65,28.65,0,0,1,3.4-1,4.58,4.58,0,0,1,.83-.09,4.18,4.18,0,0,1,2.71,1A4.09,4.09,0,0,1,100,23.57Z"/><path class="cls-5" d="M124.68,138.34a17.45,17.45,0,0,1,32.73-8.43v0a17.38,17.38,0,0,1,1.81,4.87h0a18,18,0,0,1,.36,3.54,17.46,17.46,0,0,1-34.91,0Zm47.24-29.79a42.39,42.39,0,0,0-7.3-5.85A42.24,42.24,0,0,0,124.68,100V65.35q0-.51,0-1c0-.6-.07-1.21-.14-1.81a25.1,25.1,0,0,0-.64-3.46,25.36,25.36,0,0,0-1.12-3.28,24.89,24.89,0,0,0-1.54-3.05,25.29,25.29,0,0,0-1.94-2.79,24.93,24.93,0,0,0-4.9-4.65,23.86,23.86,0,0,0-2.89-1.78,23.14,23.14,0,0,0-3.15-1.38,28.65,28.65,0,0,0-3.4-1,3.84,3.84,0,0,0-.83-.09,4.17,4.17,0,0,0-2.71,1,4.11,4.11,0,0,0-1.39,3v93.22a42.13,42.13,0,1,0,71.92-29.79Z"/><path class="cls-6" d="M124.68,100v38.36A17.45,17.45,0,0,1,153,124.65l11.67-22A42.24,42.24,0,0,0,124.68,100Z"/><path class="cls-7" d="M125.37,177a42.48,42.48,0,0,0,32,.61h0c9.18-18.4,4.13-35.23,1.82-42.83a18,18,0,0,1,.36,3.54,17.45,17.45,0,0,1-29,13.08Z"/><path class="cls-8" d="M124.65,64.33H100V45.12a4.11,4.11,0,0,1,1.39-3,4.17,4.17,0,0,1,2.71-1,3.84,3.84,0,0,1,.83.09,28.65,28.65,0,0,1,3.4,1,23.14,23.14,0,0,1,3.15,1.38,23.86,23.86,0,0,1,2.89,1.78,24.93,24.93,0,0,1,4.9,4.65,25.29,25.29,0,0,1,1.94,2.79,24.89,24.89,0,0,1,1.54,3.05,25.36,25.36,0,0,1,1.12,3.28,25.1,25.1,0,0,1,.64,3.46C124.58,63.12,124.63,63.73,124.65,64.33Z"/></svg>